<svg width="300" height="300" viewBox="0 0 300 300" fill="none" xmlns="http://www.w3.org/2000/svg">
<rect x="1.5" y="1.5" width="297" height="297" rx="32.5" fill="#EEEEEE" stroke="#B0B0B0" stroke-width="3"/>
<path d="M256 44L282 20M282 20H256M282 20V44" stroke="black" stroke-width="3"/>
<path d="M68.4751 163.06H61.0548V145.285H56V139.498H61.0546V135.38C61.0546 130.5 63.2903 127 70.6905 127C72.2556 127 74.7128 127.303 74.7128 127.303V132.677H72.1319C69.5022 132.677 68.4755 133.446 68.4755 135.571V139.498H74.6144L74.0677 145.285H68.4753L68.4751 163.06ZM85.501 139.035C85.3929 139.035 85.2817 139.039 85.1716 139.042C78.2911 139.042 75.1431 144.015 75.1431 151.075C75.1431 159.968 79.2265 163.528 85.2254 163.528C88.6575 163.528 90.9125 162.14 92.2831 159.549V163.063H99.3408V139.5H92.2831V143.124C91.164 140.792 88.846 139.063 85.501 139.035ZM87.2956 144.603C90.1855 144.603 91.92 146.54 91.92 149.835L91.9266 153.2C91.9266 155.42 90.494 158.018 87.2956 158.018C82.3784 158.018 82.5098 152.916 82.5098 151.217C82.5098 145.501 85.1297 144.603 87.2956 144.603ZM102.191 151.283C102.191 148.419 102.048 139.051 114.751 139.051C119.85 139.051 121.979 140.609 121.979 140.609L120.268 145.709C120.268 145.709 118.141 144.584 115.371 144.584C111.822 144.584 109.557 146.561 109.557 150.039L109.561 152.533C109.561 155.875 111.746 158.106 115.378 158.106C117.902 158.106 120.228 156.97 120.228 156.97L121.935 161.964C121.935 161.964 119.989 163.532 114.786 163.532C102.692 163.532 102.191 155.126 102.191 151.283H102.191ZM163.361 139.042C170.242 139.042 173.439 144.015 173.439 151.075C173.439 159.968 169.356 163.528 163.357 163.528C159.925 163.528 157.387 162.14 156.017 159.549V163.063L149.048 163.06V127.716L156.447 127.096V142.805C157.515 140.056 161.024 139.042 163.361 139.042ZM161.287 144.603C158.397 144.603 156.447 146.54 156.447 149.835L156.44 153.2C156.436 155.42 157.79 158.018 161.287 158.018C166.204 158.018 166.072 152.916 166.072 151.217C166.072 145.501 163.453 144.603 161.287 144.603ZM134.817 139.061C127.013 139.061 122.893 143.15 122.893 150.416V151.766C122.893 161.197 128.679 163.625 135.577 163.625C142.281 163.625 145.316 161.823 145.316 161.823L143.931 157.024C143.931 157.024 140.362 158.483 136.464 158.483C132.423 158.483 130.685 157.494 130.24 153.762H145.908V149.912C145.908 142.03 141.284 139.061 134.817 139.061L134.817 139.061ZM135.005 143.867C137.707 143.867 139.457 145.458 139.361 149.15H130.253C130.411 145.265 132.299 143.867 135.005 143.867ZM188.193 139.029C180.179 139.029 175.96 143.369 175.96 151.146C175.96 161.817 183.232 163.534 188.206 163.534C195.488 163.534 200.332 159.767 200.332 151.243C200.332 142.37 194.885 139.029 188.193 139.029ZM188.092 144.622C191.616 144.622 193.012 147.157 193.012 150.041V152.522C193.012 156.016 191.059 158.038 188.079 158.038C185.292 158.038 183.333 156.147 183.333 152.522V150.041C183.333 146.175 185.664 144.622 188.092 144.622ZM215.072 139.029C207.058 139.029 202.839 143.369 202.839 151.146C202.839 161.817 210.112 163.534 215.086 163.534C222.367 163.534 227.212 159.767 227.212 151.243C227.212 142.37 221.765 139.029 215.072 139.029ZM214.972 144.622C218.496 144.622 219.892 147.157 219.892 150.041V152.522C219.892 156.016 217.938 158.038 214.958 158.038C212.171 158.038 210.213 156.147 210.213 152.522V150.041C210.213 146.175 212.543 144.622 214.972 144.622ZM230.008 163.06V127.716L237.428 127.097V150.786L244.791 139.498H252.627L244.947 151.189L252.923 163.06H245.064L237.428 151.533V163.06H230.008Z" fill="#7C7C7C"/>
</svg>
