<svg width="64" height="15" viewBox="0 0 64 15" fill="none" xmlns="http://www.w3.org/2000/svg">
<path d="M2.29289 0.87868L0.878677 2.29289C0.488152 2.68342 0.488152 3.31658 0.878677 3.70711L2.29289 5.12132C2.68341 5.51184 3.31658 5.51184 3.7071 5.12132L5.12132 3.70711C5.51184 3.31658 5.51184 2.68342 5.12132 2.29289L3.7071 0.87868C3.31658 0.488156 2.68341 0.488155 2.29289 0.87868Z" fill="#3654F4"/>
<path d="M7.12132 3.70711L5.70711 5.12132C5.31658 5.51185 5.31658 6.14501 5.70711 6.53554L7.12132 7.94975C7.51184 8.34027 8.14501 8.34027 8.53553 7.94975L9.94975 6.53554C10.3403 6.14501 10.3403 5.51185 9.94975 5.12132L8.53553 3.70711C8.14501 3.31659 7.51184 3.31659 7.12132 3.70711Z" fill="#3654F4"/>
<path d="M2.29289 5.70711L0.878677 7.12132C0.488152 7.51185 0.488152 8.14501 0.878677 8.53554L2.29289 9.94975C2.68341 10.3403 3.31658 10.3403 3.7071 9.94975L5.12132 8.53554C5.51184 8.14501 5.51184 7.51185 5.12132 7.12132L3.7071 5.70711C3.31658 5.31659 2.68341 5.31659 2.29289 5.70711Z" fill="#3654F4"/>
<path d="M7.12132 8.53557L5.70711 9.94978C5.31658 10.3403 5.31658 10.9735 5.70711 11.364L7.12132 12.7782C7.51184 13.1687 8.14501 13.1687 8.53553 12.7782L9.94975 11.364C10.3403 10.9735 10.3403 10.3403 9.94975 9.94978L8.53553 8.53557C8.14501 8.14505 7.51184 8.14505 7.12132 8.53557Z" fill="#3654F4"/>
<path d="M15.8689 11.1716V3.63556H16.8049V11.1716H15.8689ZM22.5321 11.1716V7.79956C22.5321 7.25156 22.4001 6.83556 22.1361 6.55156C21.8761 6.26356 21.5201 6.11956 21.0681 6.11956C20.7241 6.11956 20.4261 6.21356 20.1741 6.40156C19.9221 6.58956 19.7281 6.85956 19.5921 7.21156C19.4561 7.55956 19.3881 7.97556 19.3881 8.45956H19.0281C19.0281 7.79156 19.1161 7.22156 19.2921 6.74956C19.4681 6.27756 19.7241 5.91756 20.0601 5.66956C20.4001 5.41756 20.8121 5.29156 21.2961 5.29156C21.7481 5.29156 22.1341 5.39356 22.4541 5.59756C22.7781 5.79756 23.0261 6.08556 23.1981 6.46156C23.3701 6.83756 23.4561 7.28356 23.4561 7.79956V11.1716H22.5321ZM18.4521 11.1716V5.43556H19.2561L19.3881 6.75556V11.1716H18.4521ZM23.9183 5.43556H24.9863L26.7863 10.3676H26.6543L28.4543 5.43556H29.5223L27.2303 11.1716H26.2103L23.9183 5.43556ZM32.1615 11.3156C31.6655 11.3156 31.2215 11.1896 30.8295 10.9376C30.4415 10.6816 30.1335 10.3276 29.9055 9.87556C29.6815 9.42356 29.5695 8.90356 29.5695 8.31556C29.5695 7.68756 29.6815 7.14756 29.9055 6.69556C30.1295 6.24356 30.4355 5.89756 30.8235 5.65756C31.2155 5.41356 31.6615 5.29156 32.1615 5.29156C32.5975 5.29156 32.9695 5.37956 33.2775 5.55556C33.5855 5.73156 33.8335 5.96956 34.0215 6.26956C34.2095 6.56956 34.3395 6.90956 34.4115 7.28956C34.4875 7.66556 34.5095 8.05556 34.4775 8.45956H30.3255V7.88356H33.8595L33.5835 8.06356C33.5955 7.82756 33.5815 7.59156 33.5415 7.35556C33.5055 7.11956 33.4355 6.90356 33.3315 6.70756C33.2275 6.50756 33.0815 6.34756 32.8935 6.22756C32.7055 6.10756 32.4655 6.04756 32.1735 6.04756C31.8055 6.04756 31.4975 6.14156 31.2495 6.32956C31.0015 6.51756 30.8155 6.76556 30.6915 7.07356C30.5675 7.37756 30.5055 7.70756 30.5055 8.06356V8.44756C30.5055 8.84756 30.5655 9.20556 30.6855 9.52156C30.8095 9.83756 30.9935 10.0876 31.2375 10.2716C31.4815 10.4556 31.7895 10.5476 32.1615 10.5476C32.5335 10.5476 32.8395 10.4576 33.0795 10.2776C33.3195 10.0976 33.4655 9.83156 33.5175 9.47956H34.4895C34.4295 9.85956 34.2935 10.1876 34.0815 10.4636C33.8695 10.7356 33.5995 10.9456 33.2715 11.0936C32.9435 11.2416 32.5735 11.3156 32.1615 11.3156ZM37.6175 11.3156C37.0615 11.3156 36.5975 11.2376 36.2255 11.0816C35.8535 10.9216 35.5715 10.7036 35.3795 10.4276C35.1875 10.1476 35.0855 9.82756 35.0735 9.46756H35.9735C35.9935 9.83156 36.1395 10.1056 36.4115 10.2896C36.6875 10.4696 37.0615 10.5596 37.5335 10.5596C37.7815 10.5596 38.0095 10.5196 38.2175 10.4396C38.4255 10.3596 38.5915 10.2496 38.7155 10.1096C38.8395 9.96956 38.9015 9.81156 38.9015 9.63556C38.9015 9.41156 38.8195 9.23556 38.6555 9.10756C38.4915 8.97956 38.2295 8.86756 37.8695 8.77156L36.7535 8.41156C36.2695 8.25956 35.8975 8.05156 35.6375 7.78756C35.3815 7.51956 35.2535 7.19956 35.2535 6.82756C35.2535 6.36356 35.4575 5.99156 35.8655 5.71156C36.2735 5.43156 36.8095 5.29156 37.4735 5.29156C38.1775 5.29156 38.7235 5.43556 39.1115 5.72356C39.4995 6.01156 39.7015 6.37156 39.7175 6.80356H38.7935C38.7575 6.55156 38.6295 6.36156 38.4095 6.23356C38.1895 6.10156 37.8775 6.03556 37.4735 6.03556C37.0855 6.03556 36.7815 6.12356 36.5615 6.29956C36.3455 6.47156 36.2375 6.66356 36.2375 6.87556C36.2375 7.27156 36.5775 7.56356 37.2575 7.75156L38.3975 8.13556C38.8895 8.28356 39.2655 8.47756 39.5255 8.71756C39.7895 8.95756 39.9215 9.26356 39.9215 9.63556C39.9215 9.92356 39.8275 10.1956 39.6395 10.4516C39.4515 10.7076 39.1855 10.9156 38.8415 11.0756C38.4975 11.2356 38.0895 11.3156 37.6175 11.3156ZM42.8422 11.3156C42.5302 11.3156 42.2502 11.2556 42.0022 11.1356C41.7542 11.0156 41.5582 10.8356 41.4142 10.5956C41.2702 10.3556 41.1982 10.0556 41.1982 9.69556V3.83956H42.1222V9.67156C42.1222 10.2636 42.3982 10.5596 42.9502 10.5596C43.1142 10.5596 43.2722 10.5416 43.4242 10.5056C43.5802 10.4696 43.7542 10.4156 43.9462 10.3436L44.0782 11.0156C43.8742 11.1036 43.6702 11.1756 43.4662 11.2316C43.2662 11.2876 43.0582 11.3156 42.8422 11.3156ZM40.2742 6.08356V5.43556H43.9342V6.08356H40.2742ZM46.886 11.3156C46.37 11.3156 45.91 11.2016 45.506 10.9736C45.106 10.7456 44.79 10.4076 44.558 9.95956C44.326 9.51156 44.21 8.95956 44.21 8.30356C44.21 7.64356 44.326 7.09156 44.558 6.64756C44.79 6.19956 45.106 5.86156 45.506 5.63356C45.91 5.40556 46.37 5.29156 46.886 5.29156C47.398 5.29156 47.854 5.40556 48.254 5.63356C48.658 5.86156 48.974 6.19956 49.202 6.64756C49.434 7.09156 49.55 7.64356 49.55 8.30356C49.55 8.95956 49.434 9.51156 49.202 9.95956C48.974 10.4076 48.658 10.7456 48.254 10.9736C47.854 11.2016 47.398 11.3156 46.886 11.3156ZM46.862 10.4996C47.234 10.4996 47.55 10.4116 47.81 10.2356C48.07 10.0556 48.266 9.80156 48.398 9.47356C48.534 9.14556 48.602 8.75556 48.602 8.30356C48.602 7.61956 48.46 7.08156 48.176 6.68956C47.892 6.29356 47.47 6.09556 46.91 6.09556C46.534 6.09556 46.216 6.18556 45.956 6.36556C45.7 6.54156 45.504 6.79556 45.368 7.12756C45.236 7.45556 45.17 7.84756 45.17 8.30356C45.17 8.97956 45.312 9.51556 45.596 9.91156C45.884 10.3036 46.306 10.4996 46.862 10.4996ZM50.5925 11.1716V5.42356H51.5285V11.1716H50.5925ZM51.2405 8.57956C51.2405 7.85156 51.3105 7.24756 51.4505 6.76756C51.5905 6.28356 51.7945 5.92356 52.0625 5.68756C52.3345 5.44756 52.6645 5.32756 53.0525 5.32756C53.1805 5.32756 53.2965 5.33756 53.4005 5.35756C53.5085 5.37356 53.6165 5.39956 53.7245 5.43556L53.6645 6.35956C53.5525 6.32356 53.4305 6.29356 53.2985 6.26956C53.1665 6.24156 53.0485 6.22756 52.9445 6.22756C52.6045 6.22756 52.3305 6.32556 52.1225 6.52156C51.9145 6.71356 51.7625 6.98556 51.6665 7.33756C51.5745 7.68956 51.5285 8.10356 51.5285 8.57956H51.2405ZM55.592 11.1716L58.244 7.42756L55.568 3.63556H56.696L58.868 6.70756L60.86 3.63556H62L59.384 7.41556L62.096 11.1716H60.944L58.76 8.15956L56.72 11.1716H55.592Z" fill="black"/>
</svg>
